# xmcd
#
# Track frame offsets:
#	150
#	20184
#	37152
#	53874
#	66258
#	86064
#	99792
#	111672
#	123498
#	140730
#
# Disc length: 2120 seconds
#
# Revision: 1
# Processed by: cddbd v1.5.1PL0 Copyright (c) Steve Scherf et al.
# Submitted via: audiograbber 1.83.01
#
DISCID=9808460a
DTITLE=Eddy Badleg - Eddy Goes Piano
DYEAR=2003
DGENRE=Blues
TTITLE0=Fire In You
TTITLE1=The Journey
TTITLE2=Incredibly Good
TTITLE3=Since I Fell In Love
TTITLE4=The Last Dance
TTITLE5=I'll Be Walkin'
TTITLE6=Fishing Blues
TTITLE7=You May Not Be Waiting
TTITLE8=We're Still Here
TTITLE9=Too Late
EXTD=
EXTT0=
EXTT1=
EXTT2=
EXTT3=
EXTT4=
EXTT5=
EXTT6=
EXTT7=
EXTT8=
EXTT9=
PLAYORDER=
